<svg xmlns="http://www.w3.org/2000/svg" version="1.1"
    xmlns:xlink="http://www.w3.org/1999/xlink"
    xmlns:svgjs="http://svgjs.dev/svgjs" viewBox="0 0 800 800">
    <defs>
        <radialGradient id="ccclaymoji-grad-dark" r="93%" cx="20%" cy="20%">
            <stop offset="70%" stopColor="hsl(41, 100%, 67%)" stopOpacity="0"></stop>
            <stop offset="97%" stopColor="#c89924" stopOpacity="1"></stop>
        </radialGradient>
        <radialGradient id="ccclaymoji-grad-light" r="65%" cx="28%" cy="20%">
            <stop offset="0%" stopColor="#fffd88" stopOpacity="0.75"></stop>
            <stop offset="100%" stopColor="hsl(41, 100%, 67%)" stopOpacity="0"></stop>
        </radialGradient>
        <filter id="ccclaymoji-blur" x="-100%" y="-100%" width="400%" height="400%" filterUnits="objectBoundingBox" primitiveUnits="userSpaceOnUse" colorInterpolationFilters="sRGB">
            <feGaussianBlur stdDeviation="30" x="0%" y="0%" width="100%" height="100%" in="SourceGraphic" edgeMode="none" result="blur"></feGaussianBlur>
        </filter>
        <filter id="inner-blur" x="-100%" y="-100%" width="400%" height="400%" filterUnits="objectBoundingBox" primitiveUnits="userSpaceOnUse" colorInterpolationFilters="sRGB">
            <feGaussianBlur stdDeviation="2" x="0%" y="0%" width="100%" height="100%" in="SourceGraphic" edgeMode="none" result="blur"></feGaussianBlur>
        </filter>
        <filter id="eye-shadow" x="-100%" y="-100%" width="400%" height="400%" filterUnits="objectBoundingBox" primitiveUnits="userSpaceOnUse" colorInterpolationFilters="sRGB">
            <feDropShadow stdDeviation="10" dx="10" dy="10" floodColor="#000000" floodOpacity="0.2" x="0%" y="0%" width="100%" height="100%" result="dropShadow"></feDropShadow>
        </filter>
        <linearGradient gradientTransform="rotate(-25)" id="eye-light" x1="50%" y1="0%" x2="50%" y2="100%">
            <stop offset="20%" stopColor="#555555" stopOpacity="1"></stop>
            <stop offset="100%" stopColor="black" stopOpacity="0"></stop>
        </linearGradient>
        <linearGradient id="mouth-light" x1="50%" y1="0%" x2="50%" y2="100%">
            <stop offset="0%" stopColor="#ff9667" stopOpacity="1"></stop>
            <stop offset="100%" stopColor="hsl(3, 100%, 51%)" stopOpacity="0"></stop>
        </linearGradient>
        <filter id="mouth-shadow" x="-100%" y="-100%" width="400%" height="400%" filterUnits="objectBoundingBox" primitiveUnits="userSpaceOnUse" colorInterpolationFilters="sRGB">
            <feDropShadow stdDeviation="10" dx="10" dy="10" floodColor="#c20000" floodOpacity="0.2" x="0%" y="0%" width="100%" height="100%" result="dropShadow"></feDropShadow>
        </filter>
    </defs>
    <g strokeLinecap="round">
        <path d="M650 449.99998478233977C650 602.9582058065985 552.9582210242588 726.9541626799139 400 726.9541626799139C247.04245283018867 726.9541626799139 150 602.9582058065985 150 449.99998478233977C150 297.04243761252843 247.04245283018867 173.04580688476562 400 173.04580688476562C552.9582210242588 173.04580688476562 650 297.04243761252843 650 449.99998478233977Z " fill="#c89924" opacity="0.25" filter="url(#ccclaymoji-blur)"></path>
        <path d="M650 399.99999613096236C650 561.6737853047515 561.6737891737891 635.7549818859482 400 635.7549818859482C238.3269230769231 635.7549818859482 150 561.6737853047515 150 399.99999613096236C150 238.3269192078854 238.3269230769231 164.24501037597656 400 164.24501037597656C561.6737891737891 164.24501037597656 650 238.3269192078854 650 399.99999613096236Z " fill="hsl(41, 100%, 67%)"></path>
        <path d="M650 399.99999613096236C650 561.6737853047515 561.6737891737891 635.7549818859482 400 635.7549818859482C238.3269230769231 635.7549818859482 150 561.6737853047515 150 399.99999613096236C150 238.3269192078854 238.3269230769231 164.24501037597656 400 164.24501037597656C561.6737891737891 164.24501037597656 650 238.3269192078854 650 399.99999613096236Z " fill="url(#ccclaymoji-grad-dark)"></path>
        <path d="M650 399.99999613096236C650 561.6737853047515 561.6737891737891 635.7549818859482 400 635.7549818859482C238.3269230769231 635.7549818859482 150 561.6737853047515 150 399.99999613096236C150 238.3269192078854 238.3269230769231 164.24501037597656 400 164.24501037597656C561.6737891737891 164.24501037597656 650 238.3269192078854 650 399.99999613096236Z " fill="url(#ccclaymoji-grad-light)"></path>
        <ellipse rx="45" ry="43.5" cx="350" cy="375" fill="black" filter="url(#eye-shadow)"></ellipse>
        <ellipse rx="45" ry="43.5" cx="350" cy="375" fill="url(#eye-light)" filter="url(#inner-blur)"></ellipse>
        <ellipse rx="23.5" ry="25" cx="450" cy="375" fill="black" filter="url(#eye-shadow)"></ellipse>
        <ellipse rx="23.5" ry="25" cx="450" cy="375" fill="url(#eye-light)" filter="url(#inner-blur)"></ellipse>
        <path d="M350 508.75Q400 573.75 450 508.75 " strokeWidth="20" stroke="hsl(3, 100%, 51%)" fill="none" filter="url(#mouth-shadow)"></path>
        <path d="M350 508.75Q400 573.75 450 508.75 " strokeWidth="6.666666666666667" stroke="url(#mouth-light)" fill="none" filter="url(#inner-blur)"></path>
    </g>
</svg>