<svg id="visual" viewBox="0 0 960 540" width="960" height="540"
    xmlns="http://www.w3.org/2000/svg"
    xmlns:xlink="http://www.w3.org/1999/xlink" version="1.1">
    <rect x="0" y="0" width="960" height="540" fill="#000000"></rect>
    <defs>
        <linearGradient id="grad1_0" x1="43.8%" y1="0%" x2="100%" y2="100%">
            <stop offset="14.444444444444446%" stop-color="#7c3aed" stop-opacity="1"></stop>
            <stop offset="85.55555555555554%" stop-color="#7c3aed" stop-opacity="1"></stop>
        </linearGradient>
    </defs>
    <defs>
        <linearGradient id="grad1_1" x1="43.8%" y1="0%" x2="100%" y2="100%">
            <stop offset="14.444444444444446%" stop-color="#7c3aed" stop-opacity="1"></stop>
            <stop offset="85.55555555555554%" stop-color="#5a1ace" stop-opacity="1"></stop>
        </linearGradient>
    </defs>
    <defs>
        <linearGradient id="grad1_2" x1="43.8%" y1="0%" x2="100%" y2="100%">
            <stop offset="14.444444444444446%" stop-color="#3300af" stop-opacity="1"></stop>
            <stop offset="85.55555555555554%" stop-color="#5a1ace" stop-opacity="1"></stop>
        </linearGradient>
    </defs>
    <defs>
        <linearGradient id="grad1_3" x1="43.8%" y1="0%" x2="100%" y2="100%">
            <stop offset="14.444444444444446%" stop-color="#3300af" stop-opacity="1"></stop>
            <stop offset="85.55555555555554%" stop-color="#000091" stop-opacity="1"></stop>
        </linearGradient>
    </defs>
    <defs>
        <linearGradient id="grad1_4" x1="43.8%" y1="0%" x2="100%" y2="100%">
            <stop offset="14.444444444444446%" stop-color="#000000" stop-opacity="1"></stop>
            <stop offset="85.55555555555554%" stop-color="#000091" stop-opacity="1"></stop>
        </linearGradient>
    </defs>
    <defs>
        <linearGradient id="grad2_0" x1="0%" y1="0%" x2="56.3%" y2="100%">
            <stop offset="14.444444444444446%" stop-color="#7c3aed" stop-opacity="1"></stop>
            <stop offset="85.55555555555554%" stop-color="#7c3aed" stop-opacity="1"></stop>
        </linearGradient>
    </defs>
    <defs>
        <linearGradient id="grad2_1" x1="0%" y1="0%" x2="56.3%" y2="100%">
            <stop offset="14.444444444444446%" stop-color="#5a1ace" stop-opacity="1"></stop>
            <stop offset="85.55555555555554%" stop-color="#7c3aed" stop-opacity="1"></stop>
        </linearGradient>
    </defs>
    <defs>
        <linearGradient id="grad2_2" x1="0%" y1="0%" x2="56.3%" y2="100%">
            <stop offset="14.444444444444446%" stop-color="#5a1ace" stop-opacity="1"></stop>
            <stop offset="85.55555555555554%" stop-color="#3300af" stop-opacity="1"></stop>
        </linearGradient>
    </defs>
    <defs>
        <linearGradient id="grad2_3" x1="0%" y1="0%" x2="56.3%" y2="100%">
            <stop offset="14.444444444444446%" stop-color="#000091" stop-opacity="1"></stop>
            <stop offset="85.55555555555554%" stop-color="#3300af" stop-opacity="1"></stop>
        </linearGradient>
    </defs>
    <defs>
        <linearGradient id="grad2_4" x1="0%" y1="0%" x2="56.3%" y2="100%">
            <stop offset="14.444444444444446%" stop-color="#000091" stop-opacity="1"></stop>
            <stop offset="85.55555555555554%" stop-color="#000000" stop-opacity="1"></stop>
        </linearGradient>
    </defs>
    <g transform="translate(960, 0)">
        <path d="M0 486C-43.3 477.7 -86.7 469.5 -119.6 446.3C-152.5 423 -174.9 384.9 -213.5 369.8C-252.1 354.7 -307 362.7 -343.7 343.7C-380.3 324.6 -398.8 278.5 -408.8 236C-418.8 193.5 -420.3 154.4 -431.8 115.7C-443.2 76.9 -464.6 38.5 -486 0L0 0Z" fill="#000083"></path>
        <path d="M0 388.8C-34.7 382.2 -69.4 375.6 -95.7 357C-122 338.4 -139.9 307.9 -170.8 295.8C-201.7 283.8 -245.6 290.2 -274.9 274.9C-304.2 259.7 -319 222.8 -327 188.8C-335 154.8 -336.2 123.6 -345.4 92.6C-354.6 61.6 -371.7 30.8 -388.8 0L0 0Z" fill="#1900a0"></path>
        <path d="M0 291.6C-26 286.6 -52 281.7 -71.7 267.8C-91.5 253.8 -104.9 230.9 -128.1 221.9C-151.3 212.8 -184.2 217.6 -206.2 206.2C-228.2 194.8 -239.3 167.1 -245.3 141.6C-251.3 116.1 -252.2 92.7 -259.1 69.4C-265.9 46.2 -278.8 23.1 -291.6 0L0 0Z" fill="#4802be"></path>
        <path d="M0 194.4C-17.3 191.1 -34.7 187.8 -47.8 178.5C-61 169.2 -69.9 154 -85.4 147.9C-100.9 141.9 -122.8 145.1 -137.5 137.5C-152.1 129.8 -159.5 111.4 -163.5 94.4C-167.5 77.4 -168.1 61.8 -172.7 46.3C-177.3 30.8 -185.8 15.4 -194.4 0L0 0Z" fill="#6b2bdd"></path>
        <path d="M0 97.2C-8.7 95.5 -17.3 93.9 -23.9 89.3C-30.5 84.6 -35 77 -42.7 74C-50.4 70.9 -61.4 72.5 -68.7 68.7C-76.1 64.9 -79.8 55.7 -81.8 47.2C-83.8 38.7 -84.1 30.9 -86.4 23.1C-88.6 15.4 -92.9 7.7 -97.2 0L0 0Z" fill="#7c3aed"></path>
    </g>
    <g transform="translate(0, 540)">
        <path d="M0 -486C34.8 -457.1 69.6 -428.3 113.6 -424C157.7 -419.8 211.1 -440.2 242.5 -420C273.9 -399.8 283.5 -339.1 297.7 -297.7C311.9 -256.3 330.9 -234.3 364.6 -210.5C398.3 -186.7 446.7 -161.2 469.4 -125.8C492.1 -90.4 489.1 -45.2 486 0L0 0Z" fill="#000083"></path>
        <path d="M0 -388.8C27.8 -365.7 55.6 -342.6 90.9 -339.2C126.2 -335.8 168.8 -352.2 194 -336C219.2 -319.9 226.8 -271.3 238.2 -238.2C249.5 -205 264.7 -187.4 291.7 -168.4C318.6 -149.4 357.4 -128.9 375.6 -100.6C393.7 -72.3 391.3 -36.2 388.8 0L0 0Z" fill="#1900a0"></path>
        <path d="M0 -291.6C20.9 -274.3 41.7 -257 68.2 -254.4C94.6 -251.9 126.6 -264.1 145.5 -252C164.4 -239.9 170.1 -203.4 178.6 -178.6C187.2 -153.8 198.5 -140.6 218.8 -126.3C239 -112 268 -96.7 281.7 -75.5C295.3 -54.2 293.4 -27.1 291.6 0L0 0Z" fill="#4802be"></path>
        <path d="M0 -194.4C13.9 -182.9 27.8 -171.3 45.4 -169.6C63.1 -167.9 84.4 -176.1 97 -168C109.6 -159.9 113.4 -135.6 119.1 -119.1C124.8 -102.5 132.4 -93.7 145.8 -84.2C159.3 -74.7 178.7 -64.5 187.8 -50.3C196.9 -36.2 195.6 -18.1 194.4 0L0 0Z" fill="#6b2bdd"></path>
        <path d="M0 -97.2C7 -91.4 13.9 -85.7 22.7 -84.8C31.5 -84 42.2 -88 48.5 -84C54.8 -80 56.7 -67.8 59.5 -59.5C62.4 -51.3 66.2 -46.9 72.9 -42.1C79.7 -37.3 89.3 -32.2 93.9 -25.2C98.4 -18.1 97.8 -9 97.2 0L0 0Z" fill="#7c3aed"></path>
    </g>
</svg>