<svg xmlns="http://www.w3.org/2000/svg" version="1.1"
    xmlns:xlink="http://www.w3.org/1999/xlink"
    xmlns:svgjs="http://svgjs.com/svgjs" width="3840" height="2160" preserveAspectRatio="none" viewBox="0 0 3840 2160">
    <g mask="url(&quot;#SvgjsMask1043&quot;)" fill="none">
        <path d="M3561 1173L3560 2626" stroke-width="10" stroke="url(#SvgjsLinearGradient1044)" stroke-linecap="round" class="Up"></path>
        <path d="M22 528L21 -784" stroke-width="10" stroke="url(#SvgjsLinearGradient1045)" stroke-linecap="round" class="Down"></path>
        <path d="M985 2154L984 3696" stroke-width="8" stroke="url(#SvgjsLinearGradient1045)" stroke-linecap="round" class="Down"></path>
        <path d="M1848 1317L1847 138" stroke-width="8" stroke="url(#SvgjsLinearGradient1044)" stroke-linecap="round" class="Up"></path>
        <path d="M587 475L586 -1051" stroke-width="10" stroke="url(#SvgjsLinearGradient1044)" stroke-linecap="round" class="Up"></path>
        <path d="M3410 786L3409 1929" stroke-width="6" stroke="url(#SvgjsLinearGradient1044)" stroke-linecap="round" class="Up"></path>
        <path d="M3195 1543L3194 2801" stroke-width="6" stroke="url(#SvgjsLinearGradient1045)" stroke-linecap="round" class="Down"></path>
        <path d="M2832 516L2831 1174" stroke-width="8" stroke="url(#SvgjsLinearGradient1045)" stroke-linecap="round" class="Down"></path>
        <path d="M1071 557L1070 1271" stroke-width="10" stroke="url(#SvgjsLinearGradient1045)" stroke-linecap="round" class="Down"></path>
        <path d="M3149 36L3148 603" stroke-width="8" stroke="url(#SvgjsLinearGradient1044)" stroke-linecap="round" class="Up"></path>
        <path d="M3413 382L3412 -946" stroke-width="8" stroke="url(#SvgjsLinearGradient1044)" stroke-linecap="round" class="Up"></path>
        <path d="M240 222L239 -1297" stroke-width="6" stroke="url(#SvgjsLinearGradient1045)" stroke-linecap="round" class="Down"></path>
        <path d="M2424 2117L2423 3352" stroke-width="8" stroke="url(#SvgjsLinearGradient1044)" stroke-linecap="round" class="Up"></path>
        <path d="M2574 2149L2573 3433" stroke-width="6" stroke="url(#SvgjsLinearGradient1044)" stroke-linecap="round" class="Up"></path>
        <path d="M42 1136L41 103" stroke-width="6" stroke="url(#SvgjsLinearGradient1044)" stroke-linecap="round" class="Up"></path>
        <path d="M704 1840L703 1141" stroke-width="8" stroke="url(#SvgjsLinearGradient1045)" stroke-linecap="round" class="Down"></path>
        <path d="M266 1855L265 425" stroke-width="6" stroke="url(#SvgjsLinearGradient1044)" stroke-linecap="round" class="Up"></path>
        <path d="M3722 1402L3721 464" stroke-width="10" stroke="url(#SvgjsLinearGradient1044)" stroke-linecap="round" class="Up"></path>
        <path d="M3188 55L3187 834" stroke-width="8" stroke="url(#SvgjsLinearGradient1045)" stroke-linecap="round" class="Down"></path>
        <path d="M2182 1531L2181 285" stroke-width="8" stroke="url(#SvgjsLinearGradient1045)" stroke-linecap="round" class="Down"></path>
        <path d="M1084 2145L1083 663" stroke-width="6" stroke="url(#SvgjsLinearGradient1044)" stroke-linecap="round" class="Up"></path>
        <path d="M3764 383L3763 1066" stroke-width="8" stroke="url(#SvgjsLinearGradient1044)" stroke-linecap="round" class="Up"></path>
        <path d="M452 1371L451 1988" stroke-width="8" stroke="url(#SvgjsLinearGradient1045)" stroke-linecap="round" class="Down"></path>
        <path d="M735 896L734 198" stroke-width="10" stroke="url(#SvgjsLinearGradient1044)" stroke-linecap="round" class="Up"></path>
        <path d="M329 1126L328 2562" stroke-width="6" stroke="url(#SvgjsLinearGradient1045)" stroke-linecap="round" class="Down"></path>
        <path d="M3758 594L3757 1349" stroke-width="8" stroke="url(#SvgjsLinearGradient1044)" stroke-linecap="round" class="Up"></path>
        <path d="M2079 1227L2078 154" stroke-width="8" stroke="url(#SvgjsLinearGradient1044)" stroke-linecap="round" class="Up"></path>
        <path d="M724 1794L723 3150" stroke-width="8" stroke="url(#SvgjsLinearGradient1044)" stroke-linecap="round" class="Up"></path>
        <path d="M701 120L700 -1369" stroke-width="8" stroke="url(#SvgjsLinearGradient1044)" stroke-linecap="round" class="Up"></path>
        <path d="M2849 466L2848 1875" stroke-width="6" stroke="url(#SvgjsLinearGradient1045)" stroke-linecap="round" class="Down"></path>
        <path d="M713 729L712 -834" stroke-width="10" stroke="url(#SvgjsLinearGradient1045)" stroke-linecap="round" class="Down"></path>
        <path d="M2903 1895L2902 587" stroke-width="10" stroke="url(#SvgjsLinearGradient1045)" stroke-linecap="round" class="Down"></path>
        <path d="M1329 1749L1328 718" stroke-width="8" stroke="url(#SvgjsLinearGradient1044)" stroke-linecap="round" class="Up"></path>
        <path d="M1507 2042L1506 3074" stroke-width="6" stroke="url(#SvgjsLinearGradient1045)" stroke-linecap="round" class="Down"></path>
        <path d="M1026 193L1025 1681" stroke-width="6" stroke="url(#SvgjsLinearGradient1044)" stroke-linecap="round" class="Up"></path>
        <path d="M2635 499L2634 1327" stroke-width="8" stroke="url(#SvgjsLinearGradient1045)" stroke-linecap="round" class="Down"></path>
        <path d="M575 445L574 1067" stroke-width="8" stroke="url(#SvgjsLinearGradient1044)" stroke-linecap="round" class="Up"></path>
        <path d="M3787 396L3786 -213" stroke-width="10" stroke="url(#SvgjsLinearGradient1045)" stroke-linecap="round" class="Down"></path>
        <path d="M2894 1743L2893 680" stroke-width="10" stroke="url(#SvgjsLinearGradient1045)" stroke-linecap="round" class="Down"></path>
        <path d="M2596 1404L2595 3013" stroke-width="6" stroke="url(#SvgjsLinearGradient1045)" stroke-linecap="round" class="Down"></path>
        <path d="M3631 1344L3630 -117" stroke-width="10" stroke="url(#SvgjsLinearGradient1045)" stroke-linecap="round" class="Down"></path>
        <path d="M2661 282L2660 1693" stroke-width="6" stroke="url(#SvgjsLinearGradient1045)" stroke-linecap="round" class="Down"></path>
        <path d="M2385 543L2384 -92" stroke-width="10" stroke="url(#SvgjsLinearGradient1044)" stroke-linecap="round" class="Up"></path>
        <path d="M1697 1753L1696 997" stroke-width="6" stroke="url(#SvgjsLinearGradient1044)" stroke-linecap="round" class="Up"></path>
        <path d="M1027 827L1026 -459" stroke-width="10" stroke="url(#SvgjsLinearGradient1044)" stroke-linecap="round" class="Up"></path>
        <path d="M1670 1294L1669 165" stroke-width="10" stroke="url(#SvgjsLinearGradient1045)" stroke-linecap="round" class="Down"></path>
        <path d="M1197 886L1196 138" stroke-width="10" stroke="url(#SvgjsLinearGradient1045)" stroke-linecap="round" class="Down"></path>
        <path d="M273 1718L272 491" stroke-width="10" stroke="url(#SvgjsLinearGradient1045)" stroke-linecap="round" class="Down"></path>
        <path d="M1123 1259L1122 2305" stroke-width="6" stroke="url(#SvgjsLinearGradient1045)" stroke-linecap="round" class="Down"></path>
        <path d="M647 437L646 1056" stroke-width="10" stroke="url(#SvgjsLinearGradient1044)" stroke-linecap="round" class="Up"></path>
        <path d="M3623 1945L3622 1218" stroke-width="8" stroke="url(#SvgjsLinearGradient1044)" stroke-linecap="round" class="Up"></path>
        <path d="M3608 1181L3607 1883" stroke-width="6" stroke="url(#SvgjsLinearGradient1045)" stroke-linecap="round" class="Down"></path>
        <path d="M3735 879L3734 1445" stroke-width="6" stroke="url(#SvgjsLinearGradient1044)" stroke-linecap="round" class="Up"></path>
        <path d="M2765 1302L2764 401" stroke-width="6" stroke="url(#SvgjsLinearGradient1044)" stroke-linecap="round" class="Up"></path>
        <path d="M3728 1058L3727 2549" stroke-width="6" stroke="url(#SvgjsLinearGradient1044)" stroke-linecap="round" class="Up"></path>
        <path d="M516 1306L515 139" stroke-width="6" stroke="url(#SvgjsLinearGradient1045)" stroke-linecap="round" class="Down"></path>
        <path d="M2040 2150L2039 1371" stroke-width="8" stroke="url(#SvgjsLinearGradient1044)" stroke-linecap="round" class="Up"></path>
        <path d="M532 291L531 -797" stroke-width="8" stroke="url(#SvgjsLinearGradient1045)" stroke-linecap="round" class="Down"></path>
        <path d="M2009 1110L2008 -180" stroke-width="10" stroke="url(#SvgjsLinearGradient1045)" stroke-linecap="round" class="Down"></path>
        <path d="M527 18L526 -1548" stroke-width="10" stroke="url(#SvgjsLinearGradient1044)" stroke-linecap="round" class="Up"></path>
        <path d="M3113 1125L3112 275" stroke-width="8" stroke="url(#SvgjsLinearGradient1045)" stroke-linecap="round" class="Down"></path>
        <path d="M1250 1161L1249 -308" stroke-width="6" stroke="url(#SvgjsLinearGradient1044)" stroke-linecap="round" class="Up"></path>
        <path d="M3061 704L3060 1592" stroke-width="10" stroke="url(#SvgjsLinearGradient1044)" stroke-linecap="round" class="Up"></path>
        <path d="M1889 1272L1888 1842" stroke-width="6" stroke="url(#SvgjsLinearGradient1045)" stroke-linecap="round" class="Down"></path>
        <path d="M1950 1957L1949 2597" stroke-width="6" stroke="url(#SvgjsLinearGradient1044)" stroke-linecap="round" class="Up"></path>
        <path d="M1037 1177L1036 2452" stroke-width="10" stroke="url(#SvgjsLinearGradient1045)" stroke-linecap="round" class="Down"></path>
        <path d="M1059 313L1058 -755" stroke-width="8" stroke="url(#SvgjsLinearGradient1045)" stroke-linecap="round" class="Down"></path>
        <path d="M1701 117L1700 916" stroke-width="10" stroke="url(#SvgjsLinearGradient1045)" stroke-linecap="round" class="Down"></path>
        <path d="M3407 239L3406 1044" stroke-width="6" stroke="url(#SvgjsLinearGradient1044)" stroke-linecap="round" class="Up"></path>
        <path d="M2049 2044L2048 1143" stroke-width="10" stroke="url(#SvgjsLinearGradient1045)" stroke-linecap="round" class="Down"></path>
        <path d="M1039 749L1038 1714" stroke-width="8" stroke="url(#SvgjsLinearGradient1045)" stroke-linecap="round" class="Down"></path>
        <path d="M2811 165L2810 -1292" stroke-width="10" stroke="url(#SvgjsLinearGradient1044)" stroke-linecap="round" class="Up"></path>
        <path d="M3094 1213L3093 -282" stroke-width="6" stroke="url(#SvgjsLinearGradient1044)" stroke-linecap="round" class="Up"></path>
        <path d="M1859 1377L1858 443" stroke-width="10" stroke="url(#SvgjsLinearGradient1044)" stroke-linecap="round" class="Up"></path>
        <path d="M3615 700L3614 -173" stroke-width="8" stroke="url(#SvgjsLinearGradient1044)" stroke-linecap="round" class="Up"></path>
        <path d="M28 613L27 1804" stroke-width="8" stroke="url(#SvgjsLinearGradient1045)" stroke-linecap="round" class="Down"></path>
        <path d="M85 554L84 1981" stroke-width="8" stroke="url(#SvgjsLinearGradient1044)" stroke-linecap="round" class="Up"></path>
        <path d="M1610 2017L1609 610" stroke-width="10" stroke="url(#SvgjsLinearGradient1044)" stroke-linecap="round" class="Up"></path>
        <path d="M3208 421L3207 1804" stroke-width="8" stroke="url(#SvgjsLinearGradient1044)" stroke-linecap="round" class="Up"></path>
        <path d="M12 1316L11 1935" stroke-width="10" stroke="url(#SvgjsLinearGradient1044)" stroke-linecap="round" class="Up"></path>
        <path d="M1832 121L1831 1544" stroke-width="8" stroke="url(#SvgjsLinearGradient1045)" stroke-linecap="round" class="Down"></path>
        <path d="M2869 1560L2868 -57" stroke-width="6" stroke="url(#SvgjsLinearGradient1044)" stroke-linecap="round" class="Up"></path>
        <path d="M3527 2118L3526 3622" stroke-width="10" stroke="url(#SvgjsLinearGradient1045)" stroke-linecap="round" class="Down"></path>
        <path d="M2874 1681L2873 3062" stroke-width="6" stroke="url(#SvgjsLinearGradient1045)" stroke-linecap="round" class="Down"></path>
        <path d="M1477 1725L1476 3249" stroke-width="6" stroke="url(#SvgjsLinearGradient1044)" stroke-linecap="round" class="Up"></path>
        <path d="M245 1361L244 585" stroke-width="10" stroke="url(#SvgjsLinearGradient1045)" stroke-linecap="round" class="Down"></path>
        <path d="M2820 1311L2819 588" stroke-width="6" stroke="url(#SvgjsLinearGradient1045)" stroke-linecap="round" class="Down"></path>
        <path d="M3814 883L3813 2141" stroke-width="6" stroke="url(#SvgjsLinearGradient1045)" stroke-linecap="round" class="Down"></path>
        <path d="M1038 1651L1037 508" stroke-width="8" stroke="url(#SvgjsLinearGradient1044)" stroke-linecap="round" class="Up"></path>
        <path d="M1349 1070L1348 2444" stroke-width="10" stroke="url(#SvgjsLinearGradient1044)" stroke-linecap="round" class="Up"></path>
        <path d="M2178 1364L2177 2942" stroke-width="10" stroke="url(#SvgjsLinearGradient1045)" stroke-linecap="round" class="Down"></path>
        <path d="M3427 2093L3426 1200" stroke-width="8" stroke="url(#SvgjsLinearGradient1044)" stroke-linecap="round" class="Up"></path>
        <path d="M3151 2084L3150 2793" stroke-width="10" stroke="url(#SvgjsLinearGradient1045)" stroke-linecap="round" class="Down"></path>
        <path d="M229 933L228 -523" stroke-width="10" stroke="url(#SvgjsLinearGradient1044)" stroke-linecap="round" class="Up"></path>
        <path d="M2426 432L2425 1441" stroke-width="10" stroke="url(#SvgjsLinearGradient1045)" stroke-linecap="round" class="Down"></path>
        <path d="M2743 418L2742 -328" stroke-width="10" stroke="url(#SvgjsLinearGradient1045)" stroke-linecap="round" class="Down"></path>
    </g>
    <defs>
        <mask id="SvgjsMask1043">
            <rect width="3840" height="2160" fill="#ffffff"></rect>
        </mask>
        <linearGradient x1="0%" y1="100%" x2="0%" y2="0%" id="SvgjsLinearGradient1044">
            <stop stop-color="rgba(20, 184, 166, 0)" offset="0"></stop>
            <stop stop-color="rgba(20, 184, 166, 1)" offset="1"></stop>
        </linearGradient>
        <linearGradient x1="0%" y1="0%" x2="0%" y2="100%" id="SvgjsLinearGradient1045">
            <stop stop-color="rgba(20, 184, 166, 0)" offset="0"></stop>
            <stop stop-color="rgba(20, 184, 166, 1)" offset="1"></stop>
        </linearGradient>
    </defs>
</svg>